<svg xmlns="http://www.w3.org/2000/svg" xmlns:xlink="http://www.w3.org/1999/xlink" width="49.999" height="1831" viewBox="0 0 49.999 1831">
  <defs>
    <clipPath id="clip-path">
      <rect id="Rectangle_1" data-name="Rectangle 1" width="49.999" height="643" fill="none"/>
    </clipPath>
  </defs>
  <g id="Group_22" data-name="Group 22" transform="translate(-1769 97)">
    <g id="Vector_Smart_Object" data-name="Vector Smart Object" transform="translate(1769 -97)">
      <g id="Group_2" data-name="Group 2">
        <g id="Group_1" data-name="Group 1" clip-path="url(#clip-path)">
          <path id="Path_1" data-name="Path 1" d="M42.666,610.244V578.382a3.669,3.669,0,0,1,.422-1.72,3.569,3.569,0,0,1,.453-.671l1.417-2.107.8-1.182.505-.753.5.743.777,1.151,1.16,1.726a3.7,3.7,0,0,1,1.3,2.813v32.994a3.7,3.7,0,0,1-.631,2.076l-2.424,3.6-4.431-6.576Z" fill="#d4b372"/>
          <path id="Path_2" data-name="Path 2" d="M25,636.449l.606-.9.606-.9,9.446-14.021,4.438,6.58-9.454,14.02-.6.893-.585.872H20.585Z" fill="#d4b372"/>
          <path id="Path_3" data-name="Path 3" d="M41.39,576.919,30.643,592.862l-4.431-6.578L42.666,561.87v-36.44l-.172-.257L26.212,501.013l4.431-6.576L40.666,509.3S50,523.553,50,524.292V563a3.713,3.713,0,0,1-.631,2.077L41.94,576.1a6.033,6.033,0,0,0-.55.819" fill="#d4b372"/>
          <path id="Path_4" data-name="Path 4" d="M19.357,596.451l4.433,6.576-9.448,14.021L9.911,610.47Z" fill="#d4b372"/>
          <path id="Path_5" data-name="Path 5" d="M0,626.3v-.244a3.694,3.694,0,0,1,1.3-2.811l1.162-1.724.594-.888.5.728.707,1.055,3.081,4.568V643H0Z" fill="#d4b372"/>
          <path id="Path_6" data-name="Path 6" d="M6.76,513.126l1.294-1.917,1.284-1.9,10.019-14.868.6-.9.6-.9L25,486.066l.606-.9.606-.9,8.768-13.011,4.433,6.58-8.77,13.011-.6.9-.6.9L25,499.22l-.6.9-.606.9L7.337,525.429v36.44l.174.256,16.278,24.159.606.9.6.9,4.434,6.576.6.9.6.9L40.1,610.471l.6.893.6.9,4.434,6.578.6.9.426.632.178.263.6.888,1.164,1.724.66.985A3.668,3.668,0,0,1,50,626.3V643H42.666V627.441l-.153-.228-.606-.9-.24-.351-.366-.548-.469-.7-3.966-5.879-.6-.9-.6-.9-9.446-14.02-.606-.9-.606-.9-4.434-6.582-.6-.9-.6-.9L8.61,576.913a5.854,5.854,0,0,0-.546-.81L.633,565.08A3.7,3.7,0,0,1,0,563V524.294a3.708,3.708,0,0,1,.633-2.076l4.855-7.206Z" fill="#d4b372"/>
          <path id="Path_7" data-name="Path 7" d="M5.041,573.884l1.417,2.107a3.774,3.774,0,0,1,.455.671,3.711,3.711,0,0,1,.424,1.72v31.862l.153.226.019.027.583.866.606.9,4.433,6.578.6.9.606.9,9.448,14.019-4.431,6.578L9.911,627.213l-.573-.85-.035-.047-.6-.9-.645-.956-1.292-1.918-1.276-1.884-1.222-1.82-.6-.9-.606-.9-2.421-3.6A3.686,3.686,0,0,1,0,611.376V578.382c0-1.126,2.457-4.539,2.457-4.539l.777-1.151.5-.743.505.753Z" fill="#d4b372"/>
          <path id="Path_8" data-name="Path 8" d="M42.666,413.5V381.641a3.647,3.647,0,0,1,.422-1.717,3.45,3.45,0,0,1,.453-.671l1.417-2.109.8-1.184.505-.751.5.743.777,1.151,1.16,1.724a3.706,3.706,0,0,1,1.3,2.813v33a3.7,3.7,0,0,1-.631,2.074l-2.424,3.6-4.431-6.576Z" fill="#d4b372"/>
          <path id="Path_9" data-name="Path 9" d="M23.79,454.659l-8.77,13.013L10.585,461.1l8.772-13.013.6-.9.6-.9L25,439.709l.606-.9.606-.9L35.658,423.9l4.438,6.58-9.454,14.019-.6.893-.6.9L25,452.864l-.6.9Z" fill="#d4b372"/>
          <path id="Path_10" data-name="Path 10" d="M7.337,479.073v29.953a3.668,3.668,0,0,1-.424,1.719,3.6,3.6,0,0,1-.453.671l-1.419,2.109-.8,1.184-.5.749-.5-.743-.777-1.149S0,510.153,0,509.026v-31.09a3.677,3.677,0,0,1,.633-2.072l3.1-4.606,4.431,6.58Z" fill="#d4b372"/>
          <path id="Path_11" data-name="Path 11" d="M41.39,380.18,30.643,396.123l-4.431-6.58,16.454-24.411v-40.72l-.172-.258L26.212,300l4.431-6.576,10.023,14.866S50,322.536,50,323.275v42.991a3.705,3.705,0,0,1-.631,2.074L41.94,379.363a5.674,5.674,0,0,0-.55.817" fill="#d4b372"/>
          <path id="Path_12" data-name="Path 12" d="M19.357,399.709l4.433,6.576-9.448,14.023-4.431-6.576Z" fill="#d4b372"/>
          <path id="Path_13" data-name="Path 13" d="M4.256,425.678l3.081,4.569v29.613l.174.254.656.983.165.238.442.657.4.591.207.3,4.433,6.578.6.9.6.9,8.77,13.013-4.433,6.578-8.772-13.011-.6-.9-.6-.9-4.433-6.576-.606-.9-.6-.9-.5-.745-.775-1.147L1.3,464.053l-.664-.983A3.7,3.7,0,0,1,0,460.995V429.321a3.692,3.692,0,0,1,1.3-2.813l1.162-1.726.594-.888.5.73Z" fill="#d4b372"/>
          <path id="Path_14" data-name="Path 14" d="M6.76,312.109l1.294-1.918,1.284-1.9L19.357,293.42l.6-.9.6-.9L25,285.048l.606-.9.606-.9,8.768-13.013,4.433,6.578-8.77,13.013-.6.9-.6.9L25,298.2l-.6.9-.606.9L7.337,324.41v40.72l.174.256,16.278,24.157.606.9.6.9,4.434,6.576.6.9.6.9L40.1,413.732l.6.893.6.9,4.434,6.578.6.9.426.634.178.261.6.888,1.164,1.726.66.981A3.685,3.685,0,0,1,50,429.565v31.673c0,1.126-2.455,4.539-2.455,4.539l-.777,1.149-.5.745-.505-.753-.8-1.184-1.417-2.107a3.511,3.511,0,0,1-.453-.671,3.649,3.649,0,0,1-.422-1.719V430.7l-.153-.226-.606-.9-.24-.351-.366-.546-.469-.7L36.866,422.1l-.6-.9-.6-.9-9.446-14.023-.606-.9-.606-.9-4.434-6.578-.6-.9-.6-.9L8.61,380.176a5.44,5.44,0,0,0-.546-.811L.633,368.34A3.692,3.692,0,0,1,0,366.266V323.275A3.686,3.686,0,0,1,.633,321.2l4.855-7.21Z" fill="#d4b372"/>
          <path id="Path_15" data-name="Path 15" d="M44.959,513.524l-1.416-2.109a3.661,3.661,0,0,1-.877-2.39V479.073l-.17-.257-.664-.977-1.206-1.8-4.434-6.576-.606-.9-.6-.9-8.77-13.013,4.431-6.576L39.415,461.1l.6.9.608.9.773,1.147a5.285,5.285,0,0,0,.542.8l3.12,4.629.6.9.6.9,3.1,4.6A3.676,3.676,0,0,1,50,477.936v31.09a3.707,3.707,0,0,1-1.3,2.815l-1.162,1.722-.775,1.151-.5.743-.507-.751Z" fill="#d4b372"/>
          <path id="Path_16" data-name="Path 16" d="M5.041,377.145l1.417,2.109a3.628,3.628,0,0,1,.455.669,3.7,3.7,0,0,1,.424,1.719V413.5l.153.228.019.027.583.866.606.9,4.433,6.578.6.9.606.9,9.448,14.021-4.431,6.578-9.448-14.02-.573-.852-.035-.047-.6-.9-.645-.956-1.292-1.916-1.276-1.89L4.264,422.1l-.6-.9-.606-.9-2.421-3.6A3.689,3.689,0,0,1,0,414.639v-33c0-1.124,2.457-4.537,2.457-4.537l.777-1.151.5-.745.505.753Z" fill="#d4b372"/>
          <path id="Path_17" data-name="Path 17" d="M42.666,212.485V180.622a3.647,3.647,0,0,1,.422-1.717,3.524,3.524,0,0,1,.453-.673l1.417-2.107.8-1.184.505-.749.5.741.777,1.151,1.16,1.724a3.7,3.7,0,0,1,1.3,2.813v33a3.7,3.7,0,0,1-.631,2.076l-2.424,3.6-4.431-6.576Z" fill="#d4b372"/>
          <path id="Path_18" data-name="Path 18" d="M23.79,253.642l-8.77,13.011-4.434-6.576,8.772-13.013.6-.9.6-.9L25,238.692l.606-.9.606-.9,9.446-14.021,4.438,6.58-9.454,14.019-.6.893-.6.9L25,251.849l-.6.9Z" fill="#d4b372"/>
          <path id="Path_19" data-name="Path 19" d="M7.337,278.059v29.953a3.68,3.68,0,0,1-.424,1.719,3.524,3.524,0,0,1-.453.669l-1.419,2.109-.8,1.184-.5.751-.5-.745-.777-1.149S0,309.137,0,308.011V276.919a3.692,3.692,0,0,1,.633-2.074l3.1-4.6,4.431,6.578Z" fill="#d4b372"/>
          <path id="Path_20" data-name="Path 20" d="M41.39,179.161,30.643,195.1l-4.431-6.578,16.454-24.413V127.673l-.172-.259L26.212,103.257l4.431-6.576,10.023,14.866S50,125.795,50,126.536v38.711a3.718,3.718,0,0,1-.631,2.077L41.94,178.344a5.9,5.9,0,0,0-.55.817" fill="#d4b372"/>
          <path id="Path_21" data-name="Path 21" d="M19.357,198.692l4.433,6.576-9.448,14.023-4.431-6.576Z" fill="#d4b372"/>
          <path id="Path_22" data-name="Path 22" d="M4.256,224.661l3.081,4.568v29.613l.174.256.656.981.165.24.442.655.4.591.207.3,4.433,6.578.6.9.6.9,8.77,13.015-4.433,6.576-8.772-13.013-.6-.9-.6-.9-4.433-6.578-.606-.9-.6-.9-.5-.741-.775-1.153L1.3,263.034l-.664-.981A3.7,3.7,0,0,1,0,259.976V228.3a3.7,3.7,0,0,1,1.3-2.815l1.162-1.724.594-.888.5.73Z" fill="#d4b372"/>
          <path id="Path_23" data-name="Path 23" d="M6.76,115.369l1.294-1.918,1.284-1.9L19.357,96.679l.6-.9.6-.9L25,88.307l.606-.9.606-.9L34.98,73.5l4.433,6.578L30.643,93.09l-.6.9-.6.9L25,101.462l-.6.9-.606.9L7.337,127.671v36.44l.174.256,16.278,24.159.606.9.6.9,4.434,6.576.6.9.6.9L40.1,212.713l.6.893.6.9,4.434,6.578.6.9.426.634.178.261.6.888L48.7,225.49l.66.981A3.7,3.7,0,0,1,50,228.547v31.675c0,1.126-2.455,4.537-2.455,4.537l-.777,1.153-.5.741-.505-.753-.8-1.182-1.417-2.107a3.451,3.451,0,0,1-.453-.671,3.655,3.655,0,0,1-.422-1.719v-30.54l-.153-.226-.606-.9-.24-.349-.366-.548-.469-.7-3.966-5.875-.6-.9-.6-.9-9.446-14.021-.606-.9-.606-.9L20.565,196.9l-.6-.9-.6-.9L8.61,179.158a5.649,5.649,0,0,0-.546-.811L.633,167.323A3.7,3.7,0,0,1,0,165.247V126.536a3.7,3.7,0,0,1,.633-2.076l4.855-7.206Z" fill="#d4b372"/>
          <path id="Path_24" data-name="Path 24" d="M44.959,312.505,43.543,310.4a3.519,3.519,0,0,1-.455-.667,3.692,3.692,0,0,1-.422-1.72V278.057l-.17-.259-.664-.977-1.206-1.795-4.434-6.578-.606-.9-.6-.9-8.77-13.011,4.431-6.578,8.772,13.013.6.9.608.9.773,1.147a5.27,5.27,0,0,0,.542.8l3.12,4.631.6.9.6.9,3.1,4.6A3.682,3.682,0,0,1,50,276.919v31.09a3.7,3.7,0,0,1-1.3,2.813l-1.162,1.724-.775,1.151-.5.745-.507-.753Z" fill="#d4b372"/>
          <path id="Path_25" data-name="Path 25" d="M5.041,176.128l1.417,2.107a3.778,3.778,0,0,1,.455.671,3.709,3.709,0,0,1,.424,1.719v31.862l.153.228.019.027.583.866.606.9,4.433,6.578.6.9.606.9L23.789,236.9l-4.431,6.578L9.911,229.458l-.573-.852-.035-.047-.6-.9-.645-.954L6.762,224.79,5.486,222.9l-1.222-1.818-.6-.9-.606-.9L.633,215.7A3.707,3.707,0,0,1,0,213.62v-33c0-1.126,2.457-4.537,2.457-4.537l.777-1.151.5-.743.505.751Z" fill="#d4b372"/>
          <path id="Path_26" data-name="Path 26" d="M50,8.587v8.292a3.7,3.7,0,0,1-.631,2.074l-2.424,3.6-4.431-6.576.153-.226V0H50Z" fill="#d4b372"/>
          <path id="Path_27" data-name="Path 27" d="M23.79,56.9,15.02,69.913l-4.434-6.576,8.772-13.013.6-.9.6-.9L25,41.952l.606-.9.606-.9,9.446-14.02L40.1,32.716,30.643,46.737l-.6.9-.6.9L25,55.107l-.6.9Z" fill="#d4b372"/>
          <path id="Path_28" data-name="Path 28" d="M7.337,81.316v29.953a3.691,3.691,0,0,1-.877,2.392l-1.419,2.107-.8,1.182-.5.753-.5-.743-.777-1.151S0,112.4,0,111.268V80.178A3.688,3.688,0,0,1,.633,78.1l3.1-4.6,4.431,6.578Z" fill="#d4b372"/>
          <path id="Path_29" data-name="Path 29" d="M19.357,1.953,23.79,8.529,14.342,22.55,9.911,15.972Z" fill="#d4b372"/>
          <path id="Path_30" data-name="Path 30" d="M4.256,27.922l3.081,4.567V62.1l.174.256.656.981.165.24.442.655.4.591.207.306,4.433,6.578.6.9.6.9,8.77,13.015-4.433,6.576L10.585,80.081l-.6-.9-.6-.9L4.946,71.709l-.606-.9-.6-.9-.5-.743L2.459,68.02,1.3,66.3.633,65.31A3.683,3.683,0,0,1,0,63.237V31.566a3.7,3.7,0,0,1,1.3-2.815l1.162-1.724.594-.89.5.73Z" fill="#d4b372"/>
          <path id="Path_31" data-name="Path 31" d="M29.434.16l.6.9.6.9L40.1,15.974l.6.893.6.9,4.434,6.578.6.9.426.634.178.261.6.89L48.7,28.751l.66.983A3.681,3.681,0,0,1,50,31.81V63.483c0,1.126-2.455,4.537-2.455,4.537l-.777,1.151-.5.743-.505-.751-.8-1.184-1.417-2.107a3.572,3.572,0,0,1-.453-.671,3.661,3.661,0,0,1-.422-1.719V32.945l-.153-.228-.606-.9-.24-.349-.366-.546-.469-.7-3.966-5.877-.6-.9-.6-.9L26.212,8.53l-.606-.9L25,6.738,20.565.16,20.457,0h8.869Z" fill="#d4b372"/>
          <path id="Path_32" data-name="Path 32" d="M44.959,115.767l-1.416-2.107a3.661,3.661,0,0,1-.877-2.392V81.316l-.17-.259-.664-.975-1.206-1.8-4.434-6.576-.606-.9-.6-.9L26.212,56.9l4.431-6.576,8.772,13.011.6.9.608.9.773,1.145a5.287,5.287,0,0,0,.542.8l3.12,4.631.6.9.6.9,3.1,4.6A3.681,3.681,0,0,1,50,80.178v31.09a3.7,3.7,0,0,1-1.3,2.815l-1.162,1.724-.775,1.151-.5.743-.507-.753Z" fill="#d4b372"/>
          <path id="Path_33" data-name="Path 33" d="M7.49,15.974,7.512,16l.583.866.6.9,4.433,6.58.606.9.6.9,9.448,14.021-4.433,6.58L9.911,32.717l-.573-.85L9.3,31.817l-.606-.9-.645-.96L6.762,28.049,5.488,26.162,4.264,24.346l-.6-.9-.606-.9L.633,18.957A3.7,3.7,0,0,1,0,16.881V0H7.337V15.748Z" fill="#d4b372"/>
        </g>
      </g>
    </g>
    <g id="Vector_Smart_Object_copy_8" data-name="Vector Smart Object copy 8" transform="translate(1769 497)">
      <g id="Group_4" data-name="Group 4">
        <g id="Group_3" data-name="Group 3" clip-path="url(#clip-path)">
          <path id="Path_34" data-name="Path 34" d="M42.666,610.244V578.382a3.669,3.669,0,0,1,.422-1.72,3.569,3.569,0,0,1,.453-.671l1.417-2.107.8-1.182.505-.753.5.743.777,1.151,1.16,1.726a3.7,3.7,0,0,1,1.3,2.813v32.994a3.7,3.7,0,0,1-.631,2.076l-2.424,3.6-4.431-6.576Z" fill="#d4b372"/>
          <path id="Path_35" data-name="Path 35" d="M25,636.449l.606-.9.606-.9,9.446-14.021,4.438,6.58-9.454,14.02-.6.893-.585.872H20.585Z" fill="#d4b372"/>
          <path id="Path_36" data-name="Path 36" d="M41.39,576.919,30.643,592.862l-4.431-6.578L42.666,561.87v-36.44l-.172-.257L26.212,501.013l4.431-6.576L40.666,509.3S50,523.553,50,524.292V563a3.713,3.713,0,0,1-.631,2.077L41.94,576.1a6.033,6.033,0,0,0-.55.819" fill="#d4b372"/>
          <path id="Path_37" data-name="Path 37" d="M19.357,596.451l4.433,6.576-9.448,14.021L9.911,610.47Z" fill="#d4b372"/>
          <path id="Path_38" data-name="Path 38" d="M0,626.3v-.244a3.694,3.694,0,0,1,1.3-2.811l1.162-1.724.594-.888.5.728.707,1.055,3.081,4.568V643H0Z" fill="#d4b372"/>
          <path id="Path_39" data-name="Path 39" d="M6.76,513.126l1.294-1.917,1.284-1.9,10.019-14.868.6-.9.6-.9L25,486.066l.606-.9.606-.9,8.768-13.011,4.433,6.58-8.77,13.011-.6.9-.6.9L25,499.22l-.6.9-.606.9L7.337,525.429v36.44l.174.256,16.278,24.159.606.9.6.9,4.434,6.576.6.9.6.9L40.1,610.471l.6.893.6.9,4.434,6.578.6.9.426.632.178.263.6.888,1.164,1.724.66.985A3.668,3.668,0,0,1,50,626.3V643H42.666V627.441l-.153-.228-.606-.9-.24-.351-.366-.548-.469-.7-3.966-5.879-.6-.9-.6-.9-9.446-14.02-.606-.9-.606-.9-4.434-6.582-.6-.9-.6-.9L8.61,576.913a5.854,5.854,0,0,0-.546-.81L.633,565.08A3.7,3.7,0,0,1,0,563V524.294a3.708,3.708,0,0,1,.633-2.076l4.855-7.206Z" fill="#d4b372"/>
          <path id="Path_40" data-name="Path 40" d="M5.041,573.884l1.417,2.107a3.774,3.774,0,0,1,.455.671,3.711,3.711,0,0,1,.424,1.72v31.862l.153.226.019.027.583.866.606.9,4.433,6.578.6.9.606.9,9.448,14.019-4.431,6.578L9.911,627.213l-.573-.85-.035-.047-.6-.9-.645-.956-1.292-1.918-1.276-1.884-1.222-1.82-.6-.9-.606-.9-2.421-3.6A3.686,3.686,0,0,1,0,611.376V578.382c0-1.126,2.457-4.539,2.457-4.539l.777-1.151.5-.743.505.753Z" fill="#d4b372"/>
          <path id="Path_41" data-name="Path 41" d="M42.666,413.5V381.641a3.647,3.647,0,0,1,.422-1.717,3.45,3.45,0,0,1,.453-.671l1.417-2.109.8-1.184.505-.751.5.743.777,1.151,1.16,1.724a3.706,3.706,0,0,1,1.3,2.813v33a3.7,3.7,0,0,1-.631,2.074l-2.424,3.6-4.431-6.576Z" fill="#d4b372"/>
          <path id="Path_42" data-name="Path 42" d="M23.79,454.659l-8.77,13.013L10.585,461.1l8.772-13.013.6-.9.6-.9L25,439.709l.606-.9.606-.9L35.658,423.9l4.438,6.58-9.454,14.019-.6.893-.6.9L25,452.864l-.6.9Z" fill="#d4b372"/>
          <path id="Path_43" data-name="Path 43" d="M7.337,479.073v29.953a3.668,3.668,0,0,1-.424,1.719,3.6,3.6,0,0,1-.453.671l-1.419,2.109-.8,1.184-.5.749-.5-.743-.777-1.149S0,510.153,0,509.026v-31.09a3.677,3.677,0,0,1,.633-2.072l3.1-4.606,4.431,6.58Z" fill="#d4b372"/>
          <path id="Path_44" data-name="Path 44" d="M41.39,380.18,30.643,396.123l-4.431-6.58,16.454-24.411v-40.72l-.172-.258L26.212,300l4.431-6.576,10.023,14.866S50,322.536,50,323.275v42.991a3.705,3.705,0,0,1-.631,2.074L41.94,379.363a5.674,5.674,0,0,0-.55.817" fill="#d4b372"/>
          <path id="Path_45" data-name="Path 45" d="M19.357,399.709l4.433,6.576-9.448,14.023-4.431-6.576Z" fill="#d4b372"/>
          <path id="Path_46" data-name="Path 46" d="M4.256,425.678l3.081,4.569v29.613l.174.254.656.983.165.238.442.657.4.591.207.3,4.433,6.578.6.9.6.9,8.77,13.013-4.433,6.578-8.772-13.011-.6-.9-.6-.9-4.433-6.576-.606-.9-.6-.9-.5-.745-.775-1.147L1.3,464.053l-.664-.983A3.7,3.7,0,0,1,0,460.995V429.321a3.692,3.692,0,0,1,1.3-2.813l1.162-1.726.594-.888.5.73Z" fill="#d4b372"/>
          <path id="Path_47" data-name="Path 47" d="M6.76,312.109l1.294-1.918,1.284-1.9L19.357,293.42l.6-.9.6-.9L25,285.048l.606-.9.606-.9,8.768-13.013,4.433,6.578-8.77,13.013-.6.9-.6.9L25,298.2l-.6.9-.606.9L7.337,324.41v40.72l.174.256,16.278,24.157.606.9.6.9,4.434,6.576.6.9.6.9L40.1,413.732l.6.893.6.9,4.434,6.578.6.9.426.634.178.261.6.888,1.164,1.726.66.981A3.685,3.685,0,0,1,50,429.565v31.673c0,1.126-2.455,4.539-2.455,4.539l-.777,1.149-.5.745-.505-.753-.8-1.184-1.417-2.107a3.511,3.511,0,0,1-.453-.671,3.649,3.649,0,0,1-.422-1.719V430.7l-.153-.226-.606-.9-.24-.351-.366-.546-.469-.7L36.866,422.1l-.6-.9-.6-.9-9.446-14.023-.606-.9-.606-.9-4.434-6.578-.6-.9-.6-.9L8.61,380.176a5.44,5.44,0,0,0-.546-.811L.633,368.34A3.692,3.692,0,0,1,0,366.266V323.275A3.686,3.686,0,0,1,.633,321.2l4.855-7.21Z" fill="#d4b372"/>
          <path id="Path_48" data-name="Path 48" d="M44.959,513.524l-1.416-2.109a3.661,3.661,0,0,1-.877-2.39V479.073l-.17-.257-.664-.977-1.206-1.8-4.434-6.576-.606-.9-.6-.9-8.77-13.013,4.431-6.576L39.415,461.1l.6.9.608.9.773,1.147a5.285,5.285,0,0,0,.542.8l3.12,4.629.6.9.6.9,3.1,4.6A3.676,3.676,0,0,1,50,477.936v31.09a3.707,3.707,0,0,1-1.3,2.815l-1.162,1.722-.775,1.151-.5.743-.507-.751Z" fill="#d4b372"/>
          <path id="Path_49" data-name="Path 49" d="M5.041,377.145l1.417,2.109a3.628,3.628,0,0,1,.455.669,3.7,3.7,0,0,1,.424,1.719V413.5l.153.228.019.027.583.866.606.9,4.433,6.578.6.9.606.9,9.448,14.021-4.431,6.578-9.448-14.02-.573-.852-.035-.047-.6-.9-.645-.956-1.292-1.916-1.276-1.89L4.264,422.1l-.6-.9-.606-.9-2.421-3.6A3.689,3.689,0,0,1,0,414.639v-33c0-1.124,2.457-4.537,2.457-4.537l.777-1.151.5-.745.505.753Z" fill="#d4b372"/>
          <path id="Path_50" data-name="Path 50" d="M42.666,212.485V180.622a3.647,3.647,0,0,1,.422-1.717,3.524,3.524,0,0,1,.453-.673l1.417-2.107.8-1.184.505-.749.5.741.777,1.151,1.16,1.724a3.7,3.7,0,0,1,1.3,2.813v33a3.7,3.7,0,0,1-.631,2.076l-2.424,3.6-4.431-6.576Z" fill="#d4b372"/>
          <path id="Path_51" data-name="Path 51" d="M23.79,253.642l-8.77,13.011-4.434-6.576,8.772-13.013.6-.9.6-.9L25,238.692l.606-.9.606-.9,9.446-14.021,4.438,6.58-9.454,14.019-.6.893-.6.9L25,251.849l-.6.9Z" fill="#d4b372"/>
          <path id="Path_52" data-name="Path 52" d="M7.337,278.059v29.953a3.68,3.68,0,0,1-.424,1.719,3.524,3.524,0,0,1-.453.669l-1.419,2.109-.8,1.184-.5.751-.5-.745-.777-1.149S0,309.137,0,308.011V276.919a3.692,3.692,0,0,1,.633-2.074l3.1-4.6,4.431,6.578Z" fill="#d4b372"/>
          <path id="Path_53" data-name="Path 53" d="M41.39,179.161,30.643,195.1l-4.431-6.578,16.454-24.413V127.673l-.172-.259L26.212,103.257l4.431-6.576,10.023,14.866S50,125.795,50,126.536v38.711a3.718,3.718,0,0,1-.631,2.077L41.94,178.344a5.9,5.9,0,0,0-.55.817" fill="#d4b372"/>
          <path id="Path_54" data-name="Path 54" d="M19.357,198.692l4.433,6.576-9.448,14.023-4.431-6.576Z" fill="#d4b372"/>
          <path id="Path_55" data-name="Path 55" d="M4.256,224.661l3.081,4.568v29.613l.174.256.656.981.165.24.442.655.4.591.207.3,4.433,6.578.6.9.6.9,8.77,13.015-4.433,6.576-8.772-13.013-.6-.9-.6-.9-4.433-6.578-.606-.9-.6-.9-.5-.741-.775-1.153L1.3,263.034l-.664-.981A3.7,3.7,0,0,1,0,259.976V228.3a3.7,3.7,0,0,1,1.3-2.815l1.162-1.724.594-.888.5.73Z" fill="#d4b372"/>
          <path id="Path_56" data-name="Path 56" d="M6.76,115.369l1.294-1.918,1.284-1.9L19.357,96.679l.6-.9.6-.9L25,88.307l.606-.9.606-.9L34.98,73.5l4.433,6.578L30.643,93.09l-.6.9-.6.9L25,101.462l-.6.9-.606.9L7.337,127.671v36.44l.174.256,16.278,24.159.606.9.6.9,4.434,6.576.6.9.6.9L40.1,212.713l.6.893.6.9,4.434,6.578.6.9.426.634.178.261.6.888L48.7,225.49l.66.981A3.7,3.7,0,0,1,50,228.547v31.675c0,1.126-2.455,4.537-2.455,4.537l-.777,1.153-.5.741-.505-.753-.8-1.182-1.417-2.107a3.451,3.451,0,0,1-.453-.671,3.655,3.655,0,0,1-.422-1.719v-30.54l-.153-.226-.606-.9-.24-.349-.366-.548-.469-.7-3.966-5.875-.6-.9-.6-.9-9.446-14.021-.606-.9-.606-.9L20.565,196.9l-.6-.9-.6-.9L8.61,179.158a5.649,5.649,0,0,0-.546-.811L.633,167.323A3.7,3.7,0,0,1,0,165.247V126.536a3.7,3.7,0,0,1,.633-2.076l4.855-7.206Z" fill="#d4b372"/>
          <path id="Path_57" data-name="Path 57" d="M44.959,312.505,43.543,310.4a3.519,3.519,0,0,1-.455-.667,3.692,3.692,0,0,1-.422-1.72V278.057l-.17-.259-.664-.977-1.206-1.795-4.434-6.578-.606-.9-.6-.9-8.77-13.011,4.431-6.578,8.772,13.013.6.9.608.9.773,1.147a5.27,5.27,0,0,0,.542.8l3.12,4.631.6.9.6.9,3.1,4.6A3.682,3.682,0,0,1,50,276.919v31.09a3.7,3.7,0,0,1-1.3,2.813l-1.162,1.724-.775,1.151-.5.745-.507-.753Z" fill="#d4b372"/>
          <path id="Path_58" data-name="Path 58" d="M5.041,176.128l1.417,2.107a3.778,3.778,0,0,1,.455.671,3.709,3.709,0,0,1,.424,1.719v31.862l.153.228.019.027.583.866.606.9,4.433,6.578.6.9.606.9L23.789,236.9l-4.431,6.578L9.911,229.458l-.573-.852-.035-.047-.6-.9-.645-.954L6.762,224.79,5.486,222.9l-1.222-1.818-.6-.9-.606-.9L.633,215.7A3.707,3.707,0,0,1,0,213.62v-33c0-1.126,2.457-4.537,2.457-4.537l.777-1.151.5-.743.505.751Z" fill="#d4b372"/>
          <path id="Path_59" data-name="Path 59" d="M50,8.587v8.292a3.7,3.7,0,0,1-.631,2.074l-2.424,3.6-4.431-6.576.153-.226V0H50Z" fill="#d4b372"/>
          <path id="Path_60" data-name="Path 60" d="M23.79,56.9,15.02,69.913l-4.434-6.576,8.772-13.013.6-.9.6-.9L25,41.952l.606-.9.606-.9,9.446-14.02L40.1,32.716,30.643,46.737l-.6.9-.6.9L25,55.107l-.6.9Z" fill="#d4b372"/>
          <path id="Path_61" data-name="Path 61" d="M7.337,81.316v29.953a3.691,3.691,0,0,1-.877,2.392l-1.419,2.107-.8,1.182-.5.753-.5-.743-.777-1.151S0,112.4,0,111.268V80.178A3.688,3.688,0,0,1,.633,78.1l3.1-4.6,4.431,6.578Z" fill="#d4b372"/>
          <path id="Path_62" data-name="Path 62" d="M19.357,1.953,23.79,8.529,14.342,22.55,9.911,15.972Z" fill="#d4b372"/>
          <path id="Path_63" data-name="Path 63" d="M4.256,27.922l3.081,4.567V62.1l.174.256.656.981.165.24.442.655.4.591.207.306,4.433,6.578.6.9.6.9,8.77,13.015-4.433,6.576L10.585,80.081l-.6-.9-.6-.9L4.946,71.709l-.606-.9-.6-.9-.5-.743L2.459,68.02,1.3,66.3.633,65.31A3.683,3.683,0,0,1,0,63.237V31.566a3.7,3.7,0,0,1,1.3-2.815l1.162-1.724.594-.89.5.73Z" fill="#d4b372"/>
          <path id="Path_64" data-name="Path 64" d="M29.434.16l.6.9.6.9L40.1,15.974l.6.893.6.9,4.434,6.578.6.9.426.634.178.261.6.89L48.7,28.751l.66.983A3.681,3.681,0,0,1,50,31.81V63.483c0,1.126-2.455,4.537-2.455,4.537l-.777,1.151-.5.743-.505-.751-.8-1.184-1.417-2.107a3.572,3.572,0,0,1-.453-.671,3.661,3.661,0,0,1-.422-1.719V32.945l-.153-.228-.606-.9-.24-.349-.366-.546-.469-.7-3.966-5.877-.6-.9-.6-.9L26.212,8.53l-.606-.9L25,6.738,20.565.16,20.457,0h8.869Z" fill="#d4b372"/>
          <path id="Path_65" data-name="Path 65" d="M44.959,115.767l-1.416-2.107a3.661,3.661,0,0,1-.877-2.392V81.316l-.17-.259-.664-.975-1.206-1.8-4.434-6.576-.606-.9-.6-.9L26.212,56.9l4.431-6.576,8.772,13.011.6.9.608.9.773,1.145a5.287,5.287,0,0,0,.542.8l3.12,4.631.6.9.6.9,3.1,4.6A3.681,3.681,0,0,1,50,80.178v31.09a3.7,3.7,0,0,1-1.3,2.815l-1.162,1.724-.775,1.151-.5.743-.507-.753Z" fill="#d4b372"/>
          <path id="Path_66" data-name="Path 66" d="M7.49,15.974,7.512,16l.583.866.6.9,4.433,6.58.606.9.6.9,9.448,14.021-4.433,6.58L9.911,32.717l-.573-.85L9.3,31.817l-.606-.9-.645-.96L6.762,28.049,5.488,26.162,4.264,24.346l-.6-.9-.606-.9L.633,18.957A3.7,3.7,0,0,1,0,16.881V0H7.337V15.748Z" fill="#d4b372"/>
        </g>
      </g>
    </g>
    <g id="Vector_Smart_Object_copy_9" data-name="Vector Smart Object copy 9" transform="translate(1769 1091)">
      <g id="Group_6" data-name="Group 6">
        <g id="Group_5" data-name="Group 5" clip-path="url(#clip-path)">
          <path id="Path_67" data-name="Path 67" d="M42.666,610.244V578.382a3.669,3.669,0,0,1,.422-1.72,3.569,3.569,0,0,1,.453-.671l1.417-2.107.8-1.182.505-.753.5.743.777,1.151,1.16,1.726a3.7,3.7,0,0,1,1.3,2.813v32.994a3.7,3.7,0,0,1-.631,2.076l-2.424,3.6-4.431-6.576Z" fill="#d4b372"/>
          <path id="Path_68" data-name="Path 68" d="M25,636.449l.606-.9.606-.9,9.446-14.021,4.438,6.58-9.454,14.02-.6.893-.585.872H20.585Z" fill="#d4b372"/>
          <path id="Path_69" data-name="Path 69" d="M41.39,576.919,30.643,592.862l-4.431-6.578L42.666,561.87v-36.44l-.172-.257L26.212,501.013l4.431-6.576L40.666,509.3S50,523.553,50,524.292V563a3.713,3.713,0,0,1-.631,2.077L41.94,576.1a6.033,6.033,0,0,0-.55.819" fill="#d4b372"/>
          <path id="Path_70" data-name="Path 70" d="M19.357,596.451l4.433,6.576-9.448,14.021L9.911,610.47Z" fill="#d4b372"/>
          <path id="Path_71" data-name="Path 71" d="M0,626.3v-.244a3.694,3.694,0,0,1,1.3-2.811l1.162-1.724.594-.888.5.728.707,1.055,3.081,4.568V643H0Z" fill="#d4b372"/>
          <path id="Path_72" data-name="Path 72" d="M6.76,513.126l1.294-1.917,1.284-1.9,10.019-14.868.6-.9.6-.9L25,486.066l.606-.9.606-.9,8.768-13.011,4.433,6.58-8.77,13.011-.6.9-.6.9L25,499.22l-.6.9-.606.9L7.337,525.429v36.44l.174.256,16.278,24.159.606.9.6.9,4.434,6.576.6.9.6.9L40.1,610.471l.6.893.6.9,4.434,6.578.6.9.426.632.178.263.6.888,1.164,1.724.66.985A3.668,3.668,0,0,1,50,626.3V643H42.666V627.441l-.153-.228-.606-.9-.24-.351-.366-.548-.469-.7-3.966-5.879-.6-.9-.6-.9-9.446-14.02-.606-.9-.606-.9-4.434-6.582-.6-.9-.6-.9L8.61,576.913a5.854,5.854,0,0,0-.546-.81L.633,565.08A3.7,3.7,0,0,1,0,563V524.294a3.708,3.708,0,0,1,.633-2.076l4.855-7.206Z" fill="#d4b372"/>
          <path id="Path_73" data-name="Path 73" d="M5.041,573.884l1.417,2.107a3.774,3.774,0,0,1,.455.671,3.711,3.711,0,0,1,.424,1.72v31.862l.153.226.019.027.583.866.606.9,4.433,6.578.6.9.606.9,9.448,14.019-4.431,6.578L9.911,627.213l-.573-.85-.035-.047-.6-.9-.645-.956-1.292-1.918-1.276-1.884-1.222-1.82-.6-.9-.606-.9-2.421-3.6A3.686,3.686,0,0,1,0,611.376V578.382c0-1.126,2.457-4.539,2.457-4.539l.777-1.151.5-.743.505.753Z" fill="#d4b372"/>
          <path id="Path_74" data-name="Path 74" d="M42.666,413.5V381.641a3.647,3.647,0,0,1,.422-1.717,3.45,3.45,0,0,1,.453-.671l1.417-2.109.8-1.184.505-.751.5.743.777,1.151,1.16,1.724a3.706,3.706,0,0,1,1.3,2.813v33a3.7,3.7,0,0,1-.631,2.074l-2.424,3.6-4.431-6.576Z" fill="#d4b372"/>
          <path id="Path_75" data-name="Path 75" d="M23.79,454.659l-8.77,13.013L10.585,461.1l8.772-13.013.6-.9.6-.9L25,439.709l.606-.9.606-.9L35.658,423.9l4.438,6.58-9.454,14.019-.6.893-.6.9L25,452.864l-.6.9Z" fill="#d4b372"/>
          <path id="Path_76" data-name="Path 76" d="M7.337,479.073v29.953a3.668,3.668,0,0,1-.424,1.719,3.6,3.6,0,0,1-.453.671l-1.419,2.109-.8,1.184-.5.749-.5-.743-.777-1.149S0,510.153,0,509.026v-31.09a3.677,3.677,0,0,1,.633-2.072l3.1-4.606,4.431,6.58Z" fill="#d4b372"/>
          <path id="Path_77" data-name="Path 77" d="M41.39,380.18,30.643,396.123l-4.431-6.58,16.454-24.411v-40.72l-.172-.258L26.212,300l4.431-6.576,10.023,14.866S50,322.536,50,323.275v42.991a3.705,3.705,0,0,1-.631,2.074L41.94,379.363a5.674,5.674,0,0,0-.55.817" fill="#d4b372"/>
          <path id="Path_78" data-name="Path 78" d="M19.357,399.709l4.433,6.576-9.448,14.023-4.431-6.576Z" fill="#d4b372"/>
          <path id="Path_79" data-name="Path 79" d="M4.256,425.678l3.081,4.569v29.613l.174.254.656.983.165.238.442.657.4.591.207.3,4.433,6.578.6.9.6.9,8.77,13.013-4.433,6.578-8.772-13.011-.6-.9-.6-.9-4.433-6.576-.606-.9-.6-.9-.5-.745-.775-1.147L1.3,464.053l-.664-.983A3.7,3.7,0,0,1,0,460.995V429.321a3.692,3.692,0,0,1,1.3-2.813l1.162-1.726.594-.888.5.73Z" fill="#d4b372"/>
          <path id="Path_80" data-name="Path 80" d="M6.76,312.109l1.294-1.918,1.284-1.9L19.357,293.42l.6-.9.6-.9L25,285.048l.606-.9.606-.9,8.768-13.013,4.433,6.578-8.77,13.013-.6.9-.6.9L25,298.2l-.6.9-.606.9L7.337,324.41v40.72l.174.256,16.278,24.157.606.9.6.9,4.434,6.576.6.9.6.9L40.1,413.732l.6.893.6.9,4.434,6.578.6.9.426.634.178.261.6.888,1.164,1.726.66.981A3.685,3.685,0,0,1,50,429.565v31.673c0,1.126-2.455,4.539-2.455,4.539l-.777,1.149-.5.745-.505-.753-.8-1.184-1.417-2.107a3.511,3.511,0,0,1-.453-.671,3.649,3.649,0,0,1-.422-1.719V430.7l-.153-.226-.606-.9-.24-.351-.366-.546-.469-.7L36.866,422.1l-.6-.9-.6-.9-9.446-14.023-.606-.9-.606-.9-4.434-6.578-.6-.9-.6-.9L8.61,380.176a5.44,5.44,0,0,0-.546-.811L.633,368.34A3.692,3.692,0,0,1,0,366.266V323.275A3.686,3.686,0,0,1,.633,321.2l4.855-7.21Z" fill="#d4b372"/>
          <path id="Path_81" data-name="Path 81" d="M44.959,513.524l-1.416-2.109a3.661,3.661,0,0,1-.877-2.39V479.073l-.17-.257-.664-.977-1.206-1.8-4.434-6.576-.606-.9-.6-.9-8.77-13.013,4.431-6.576L39.415,461.1l.6.9.608.9.773,1.147a5.285,5.285,0,0,0,.542.8l3.12,4.629.6.9.6.9,3.1,4.6A3.676,3.676,0,0,1,50,477.936v31.09a3.707,3.707,0,0,1-1.3,2.815l-1.162,1.722-.775,1.151-.5.743-.507-.751Z" fill="#d4b372"/>
          <path id="Path_82" data-name="Path 82" d="M5.041,377.145l1.417,2.109a3.628,3.628,0,0,1,.455.669,3.7,3.7,0,0,1,.424,1.719V413.5l.153.228.019.027.583.866.606.9,4.433,6.578.6.9.606.9,9.448,14.021-4.431,6.578-9.448-14.02-.573-.852-.035-.047-.6-.9-.645-.956-1.292-1.916-1.276-1.89L4.264,422.1l-.6-.9-.606-.9-2.421-3.6A3.689,3.689,0,0,1,0,414.639v-33c0-1.124,2.457-4.537,2.457-4.537l.777-1.151.5-.745.505.753Z" fill="#d4b372"/>
          <path id="Path_83" data-name="Path 83" d="M42.666,212.485V180.622a3.647,3.647,0,0,1,.422-1.717,3.524,3.524,0,0,1,.453-.673l1.417-2.107.8-1.184.505-.749.5.741.777,1.151,1.16,1.724a3.7,3.7,0,0,1,1.3,2.813v33a3.7,3.7,0,0,1-.631,2.076l-2.424,3.6-4.431-6.576Z" fill="#d4b372"/>
          <path id="Path_84" data-name="Path 84" d="M23.79,253.642l-8.77,13.011-4.434-6.576,8.772-13.013.6-.9.6-.9L25,238.692l.606-.9.606-.9,9.446-14.021,4.438,6.58-9.454,14.019-.6.893-.6.9L25,251.849l-.6.9Z" fill="#d4b372"/>
          <path id="Path_85" data-name="Path 85" d="M7.337,278.059v29.953a3.68,3.68,0,0,1-.424,1.719,3.524,3.524,0,0,1-.453.669l-1.419,2.109-.8,1.184-.5.751-.5-.745-.777-1.149S0,309.137,0,308.011V276.919a3.692,3.692,0,0,1,.633-2.074l3.1-4.6,4.431,6.578Z" fill="#d4b372"/>
          <path id="Path_86" data-name="Path 86" d="M41.39,179.161,30.643,195.1l-4.431-6.578,16.454-24.413V127.673l-.172-.259L26.212,103.257l4.431-6.576,10.023,14.866S50,125.795,50,126.536v38.711a3.718,3.718,0,0,1-.631,2.077L41.94,178.344a5.9,5.9,0,0,0-.55.817" fill="#d4b372"/>
          <path id="Path_87" data-name="Path 87" d="M19.357,198.692l4.433,6.576-9.448,14.023-4.431-6.576Z" fill="#d4b372"/>
          <path id="Path_88" data-name="Path 88" d="M4.256,224.661l3.081,4.568v29.613l.174.256.656.981.165.24.442.655.4.591.207.3,4.433,6.578.6.9.6.9,8.77,13.015-4.433,6.576-8.772-13.013-.6-.9-.6-.9-4.433-6.578-.606-.9-.6-.9-.5-.741-.775-1.153L1.3,263.034l-.664-.981A3.7,3.7,0,0,1,0,259.976V228.3a3.7,3.7,0,0,1,1.3-2.815l1.162-1.724.594-.888.5.73Z" fill="#d4b372"/>
          <path id="Path_89" data-name="Path 89" d="M6.76,115.369l1.294-1.918,1.284-1.9L19.357,96.679l.6-.9.6-.9L25,88.307l.606-.9.606-.9L34.98,73.5l4.433,6.578L30.643,93.09l-.6.9-.6.9L25,101.462l-.6.9-.606.9L7.337,127.671v36.44l.174.256,16.278,24.159.606.9.6.9,4.434,6.576.6.9.6.9L40.1,212.713l.6.893.6.9,4.434,6.578.6.9.426.634.178.261.6.888L48.7,225.49l.66.981A3.7,3.7,0,0,1,50,228.547v31.675c0,1.126-2.455,4.537-2.455,4.537l-.777,1.153-.5.741-.505-.753-.8-1.182-1.417-2.107a3.451,3.451,0,0,1-.453-.671,3.655,3.655,0,0,1-.422-1.719v-30.54l-.153-.226-.606-.9-.24-.349-.366-.548-.469-.7-3.966-5.875-.6-.9-.6-.9-9.446-14.021-.606-.9-.606-.9L20.565,196.9l-.6-.9-.6-.9L8.61,179.158a5.649,5.649,0,0,0-.546-.811L.633,167.323A3.7,3.7,0,0,1,0,165.247V126.536a3.7,3.7,0,0,1,.633-2.076l4.855-7.206Z" fill="#d4b372"/>
          <path id="Path_90" data-name="Path 90" d="M44.959,312.505,43.543,310.4a3.519,3.519,0,0,1-.455-.667,3.692,3.692,0,0,1-.422-1.72V278.057l-.17-.259-.664-.977-1.206-1.795-4.434-6.578-.606-.9-.6-.9-8.77-13.011,4.431-6.578,8.772,13.013.6.9.608.9.773,1.147a5.27,5.27,0,0,0,.542.8l3.12,4.631.6.9.6.9,3.1,4.6A3.682,3.682,0,0,1,50,276.919v31.09a3.7,3.7,0,0,1-1.3,2.813l-1.162,1.724-.775,1.151-.5.745-.507-.753Z" fill="#d4b372"/>
          <path id="Path_91" data-name="Path 91" d="M5.041,176.128l1.417,2.107a3.778,3.778,0,0,1,.455.671,3.709,3.709,0,0,1,.424,1.719v31.862l.153.228.019.027.583.866.606.9,4.433,6.578.6.9.606.9L23.789,236.9l-4.431,6.578L9.911,229.458l-.573-.852-.035-.047-.6-.9-.645-.954L6.762,224.79,5.486,222.9l-1.222-1.818-.6-.9-.606-.9L.633,215.7A3.707,3.707,0,0,1,0,213.62v-33c0-1.126,2.457-4.537,2.457-4.537l.777-1.151.5-.743.505.751Z" fill="#d4b372"/>
          <path id="Path_92" data-name="Path 92" d="M50,8.587v8.292a3.7,3.7,0,0,1-.631,2.074l-2.424,3.6-4.431-6.576.153-.226V0H50Z" fill="#d4b372"/>
          <path id="Path_93" data-name="Path 93" d="M23.79,56.9,15.02,69.913l-4.434-6.576,8.772-13.013.6-.9.6-.9L25,41.952l.606-.9.606-.9,9.446-14.02L40.1,32.716,30.643,46.737l-.6.9-.6.9L25,55.107l-.6.9Z" fill="#d4b372"/>
          <path id="Path_94" data-name="Path 94" d="M7.337,81.316v29.953a3.691,3.691,0,0,1-.877,2.392l-1.419,2.107-.8,1.182-.5.753-.5-.743-.777-1.151S0,112.4,0,111.268V80.178A3.688,3.688,0,0,1,.633,78.1l3.1-4.6,4.431,6.578Z" fill="#d4b372"/>
          <path id="Path_95" data-name="Path 95" d="M19.357,1.953,23.79,8.529,14.342,22.55,9.911,15.972Z" fill="#d4b372"/>
          <path id="Path_96" data-name="Path 96" d="M4.256,27.922l3.081,4.567V62.1l.174.256.656.981.165.24.442.655.4.591.207.306,4.433,6.578.6.9.6.9,8.77,13.015-4.433,6.576L10.585,80.081l-.6-.9-.6-.9L4.946,71.709l-.606-.9-.6-.9-.5-.743L2.459,68.02,1.3,66.3.633,65.31A3.683,3.683,0,0,1,0,63.237V31.566a3.7,3.7,0,0,1,1.3-2.815l1.162-1.724.594-.89.5.73Z" fill="#d4b372"/>
          <path id="Path_97" data-name="Path 97" d="M29.434.16l.6.9.6.9L40.1,15.974l.6.893.6.9,4.434,6.578.6.9.426.634.178.261.6.89L48.7,28.751l.66.983A3.681,3.681,0,0,1,50,31.81V63.483c0,1.126-2.455,4.537-2.455,4.537l-.777,1.151-.5.743-.505-.751-.8-1.184-1.417-2.107a3.572,3.572,0,0,1-.453-.671,3.661,3.661,0,0,1-.422-1.719V32.945l-.153-.228-.606-.9-.24-.349-.366-.546-.469-.7-3.966-5.877-.6-.9-.6-.9L26.212,8.53l-.606-.9L25,6.738,20.565.16,20.457,0h8.869Z" fill="#d4b372"/>
          <path id="Path_98" data-name="Path 98" d="M44.959,115.767l-1.416-2.107a3.661,3.661,0,0,1-.877-2.392V81.316l-.17-.259-.664-.975-1.206-1.8-4.434-6.576-.606-.9-.6-.9L26.212,56.9l4.431-6.576,8.772,13.011.6.9.608.9.773,1.145a5.287,5.287,0,0,0,.542.8l3.12,4.631.6.9.6.9,3.1,4.6A3.681,3.681,0,0,1,50,80.178v31.09a3.7,3.7,0,0,1-1.3,2.815l-1.162,1.724-.775,1.151-.5.743-.507-.753Z" fill="#d4b372"/>
          <path id="Path_99" data-name="Path 99" d="M7.49,15.974,7.512,16l.583.866.6.9,4.433,6.58.606.9.6.9,9.448,14.021-4.433,6.58L9.911,32.717l-.573-.85L9.3,31.817l-.606-.9-.645-.96L6.762,28.049,5.488,26.162,4.264,24.346l-.6-.9-.606-.9L.633,18.957A3.7,3.7,0,0,1,0,16.881V0H7.337V15.748Z" fill="#d4b372"/>
        </g>
      </g>
    </g>
  </g>
</svg>
